<?xml version="1.0" encoding="UTF-8"?>
<svg width="159px" height="86px" viewBox="0 0 159 86" version="1.1" xmlns="http://www.w3.org/2000/svg" xmlns:xlink="http://www.w3.org/1999/xlink">
    <!-- Generator: Sketch 48.2 (47327) - http://www.bohemiancoding.com/sketch -->
    <title>logo@1x</title>
    <desc>Created with Sketch.</desc>
    <defs>
        <path d="M6.5,2.1 C4.5,3.4 3,5 1.9,7 C0.8,9 0.3,11.2 0.3,13.5 C0.3,15.9 0.8,18.1 1.9,20.1 C3,22.1 4.5,23.7 6.6,24.9 C8.7,26.1 11.1,26.7 13.8,26.7 C16,26.7 18,26.3 19.8,25.4 C21.5,24.499 22.999,23.401 24.1,21.9 C25.179,20.428 25.97,18.859 26.283,17.1 L20,17.1 C19.7,18.4 18.9,19.5 17.8,20.3 C16.7,21.2 15.4,21.6 13.999,21.6 C12.4,21.6 11,21.2 9.8,20.5 C8.6,19.8 7.7,18.8 7.1,17.6 C6.5,16.3 6.2,15 6.2,13.5 C6.2,12.1 6.5,10.8 7.1,9.6 C7.7,8.4 8.5,7.4 9.7,6.7 C10.8,6 12.2,5.6 13.8,5.6 C15.6,5.6 17,6 18.1,7 C19.2,7.9 19.9,9.2 20.2,10.7 L26.401,10.7 C26.2,8.7 25.6,7 24.5,5.401 C23.4,3.9 21.901,2.6 20.1,1.7 C18.2,0.8 16,0.3 13.5,0.3 C10.8,0.3 8.5,0.901 6.5,2.1 Z M127.499,0.8 L127.499,17.2 L118.4,0.8 L112.299,0.8 L112.299,26 L118.101,26 L118.101,9.8 L127.2,26 L133.3,26 L133.3,0.8 L127.499,0.8 Z M89.339,0.901 L89.401,0.901 L89.401,0.8 L89.339,0.901 Z M58.9,26 L64.8,26 L64.8,0.8 L58.9,0.8 L58.9,26 Z M29.8,26 L35.7,26 L35.7,0.8 L29.8,0.8 L29.8,26 Z M92.299,0.901 L92.299,26.1 L107.7,26.1 L107.7,21.4 L98.2,21.4 L98.2,15.9 L107.7,15.9 L107.7,11.3 L98.2,11.3 L98.2,5.6 L107.7,5.6 L107.7,0.901 L92.299,0.901 Z M68.9,0.901 L68.9,5.8 L80.2,5.8 L67.9,26.1 L89.1,26.1 L89.1,21.2 L77.1,21.2 L89.339,0.901 L68.9,0.901 Z M38.7,0.901 L38.7,5.9 L44.401,5.9 L44.401,26.1 L50.2,26.1 L50.2,5.9 L55.9,5.9 L55.9,0.901 L38.7,0.901 Z M26.283,17.1 L26.3,17.1 L26.3,17 C26.294,17.033 26.288,17.066 26.283,17.1 Z M6.5,30.1 C4.5,31.4 3,33 1.9,35 C0.8,37 0.3,39.2 0.3,41.5 C0.3,43.9 0.8,46.1 1.9,48.1 C3,50.1 4.5,51.7 6.6,52.9 C8.7,54.1 11.1,54.7 13.8,54.7 C16,54.7 18,54.299 19.8,53.4 C21.5,52.499 22.999,51.4 24.1,49.9 C25.179,48.428 25.97,46.859 26.283,45.1 L20,45.1 C19.7,46.4 18.9,47.5 17.8,48.3 C16.7,49.2 15.4,49.6 13.999,49.6 C12.4,49.6 11,49.2 9.8,48.5 C8.6,47.8 7.7,46.8 7.1,45.6 C6.5,44.299 6.2,43 6.2,41.5 C6.2,40.1 6.5,38.8 7.1,37.601 C7.7,36.4 8.5,35.4 9.7,34.7 C10.8,34 12.2,33.6 13.8,33.6 C15.6,33.6 17,34 18.1,35 C19.2,35.9 19.9,37.2 20.2,38.7 L26.401,38.7 C26.2,36.7 25.6,35 24.5,33.4 C23.4,31.9 21.901,30.601 20.1,29.7 C18.2,28.8 16,28.299 13.5,28.299 C10.8,28.299 8.5,28.9 6.5,30.1 Z M52.7,28.601 L52.7,53.8 L58.5,53.8 L58.5,46.8 L63.2,46.8 C65,46.8 66.6,46.4 67.999,45.6 C69.4,44.8 70.4,43.7 71.2,42.3 C72,40.9 72.4,39.4 72.4,37.8 C72.4,36.2 72,34.7 71.2,33.3 C70.5,31.9 69.4,30.799 67.999,29.999 C66.6,29.2 65,28.601 63.2,28.601 L52.7,28.601 Z M58.4,33.499 L62.401,33.499 C63.6,33.499 64.6,33.9 65.3,34.8 C66,35.7 66.4,36.7 66.4,37.9 C66.4,39.1 66,40.1 65.3,41 C64.6,41.9 63.6,42.2 62.401,42.2 L58.4,42.2 L58.4,33.499 Z M127.4,28.8 L127.4,54 L140.2,54 L140.2,49 L133.3,49 L133.3,28.8 L127.4,28.8 Z M75.5,54 L81.4,54 L81.4,28.8 L75.5,28.8 L75.5,54 Z M110.2,28.9 L101.2,54.1 L107.3,54.1 L108.3,51 L117.3,51 L118.4,54.1 L124.7,54.1 L115.6,28.9 L110.2,28.9 Z M112.9,36 L116,46.4 L109.8,46.4 L109.4,46.4 L112.9,36 Z M84.8,28.9 L84.8,33.9 L90.499,33.9 L90.499,54.1 L96.3,54.1 L96.3,33.9 L102,33.9 L102,28.9 L84.8,28.9 Z M35.6,28.9 L26.6,54.1 L32.801,54.1 L33.8,51 L42.8,51 L43.8,54.1 L50.1,54.1 L40.999,28.9 L35.6,28.9 Z M38.3,36 L41.3,46.4 L35.2,46.4 L38.3,36 Z M84.4,33.9 L84.8,33.9 L84.4,33.9 Z M26.283,45.1 L26.3,45.1 L26.3,45 C26.294,45.033 26.288,45.067 26.283,45.1 Z" id="path-1"></path>
    </defs>
    <g id="Page-1" stroke="none" stroke-width="1" fill="none" fill-rule="evenodd">
        <g id="logo">
            <g id="Page-1" transform="translate(9.000000, 16.000000)">
                <mask id="mask-2" fill="white">
                    <use xlink:href="#path-1"></use>
                </mask>
                <g id="Clip-2"></g>
                <polygon id="Fill-1" fill="#000000" mask="url(#mask-2)" points="-4.4 59.7 144.6 59.7 144.6 -4.8 -4.4 -4.8"></polygon>
            </g>
        </g>
    </g>
</svg>